<svg xmlns="http://www.w3.org/2000/svg" viewBox="0 0 140.81 83.99">
    <g id="Ebene_2" data-name="Ebene 2">
        <g id="Ebene_1-2" data-name="Ebene 1">
            <path d="M45.15,52H32.82l-2.34,7H23L35.7,24.9h6.52L55,59H47.52ZM34.72,46.3h8.53L39,33.52Z" fill="#1f1f1f"/>
            <path d="M84.69,54.71a12.26,12.26,0,0,1-5.37,3.53,22.6,22.6,0,0,1-7.69,1.25,15.24,15.24,0,0,1-7.77-1.93,12.9,12.9,0,0,1-5.15-5.62,19.71,19.71,0,0,1-1.86-8.64V41a21,21,0,0,1,1.72-8.85,12.73,12.73,0,0,1,5-5.72,14.3,14.3,0,0,1,7.6-2q6.08,0,9.49,2.89t4.06,8.43H77.85a6.87,6.87,0,0,0-2.08-4.29,6.6,6.6,0,0,0-4.42-1.36,6.23,6.23,0,0,0-5.46,2.7q-1.87,2.69-1.9,8V43q0,5.37,2,8.11a7,7,0,0,0,6,2.74q4,0,5.65-1.68V46.27h-6.4V41.09H84.69Z" fill="#1f1f1f"/>
            <path d="M90.38,59V24.9h12q6.21,0,9.42,2.38a8.13,8.13,0,0,1,3.21,7,7.73,7.73,0,0,1-1.29,4.42,7.49,7.49,0,0,1-3.58,2.8,7.2,7.2,0,0,1,4.13,2.65A7.79,7.79,0,0,1,115.74,49c0,3.28-1,5.77-3.14,7.45S107.52,59,103.65,59Zm7-19.83h5.2q5.32-.09,5.32-4.24a3.93,3.93,0,0,0-1.35-3.34,7.09,7.09,0,0,0-4.25-1H97.42Zm0,5v9.21h6a5.8,5.8,0,0,0,3.88-1.18,4.06,4.06,0,0,0,1.39-3.27c0-3.12-1.61-4.71-4.85-4.76Z" fill="#1f1f1f"/>
            <g id="Gruppe_45" data-name="Gruppe 45">
                <g id="Pfad_16" data-name="Pfad 16">
                    <g id="Pfad_53" data-name="Pfad 53">
                        <path d="M139.32,81.33c-10.74.55-21.84,1-33.07,1.38l-17,.53-17.18.4C60.57,83.82,49,84,37.37,84s-23.25-.36-34.77-.8L0,83.08l.11-2C.46,74.62.79,68.16,1,61.7L1.31,52l.1-9.69c0-6.46-.08-12.92-.25-19.38L.45,3.56.38,1.82l2.24-.07q17-.53,34.1-1L70.84.26C82.2.15,93.56,0,105,0s22.74.12,34.11.21h1.75C140.13,30,139.32,81.33,139.32,81.33Zm-.55-.46c-.19-51-.11-49.59-.66-76.37l1.81,1.57c-11.36.09-23.62,1.09-35,1s-22.72-.15-34.11-.26L36.71,6.32q-17-.35-34.11-1L4.77,3.51,4.06,22.89c-.18,6.46-.23,12.92-.25,19.38l.1,9.7.27,9.68c.25,6.47.58,12.93.93,19.39L2.62,79c11.23-.44,22.34-.74,33.45-.8s22.29.16,33.51.34l16.93.4,17.12.53c11.51.39,23.16.83,35.15,1.38Z" fill="#1f1f1f"/>
                    </g>
                </g>
            </g>
        </g>
    </g>
</svg>