<?xml version="1.0" encoding="utf-8"?>
<!-- Generator: Adobe Illustrator 24.1.2, SVG Export Plug-In . SVG Version: 6.00 Build 0)  -->
<svg version="1.1" id="Ebene_1" xmlns="http://www.w3.org/2000/svg" xmlns:xlink="http://www.w3.org/1999/xlink" x="0px" y="0px"
	 viewBox="0 0 346.2 84" style="enable-background:new 0 0 346.2 84;" xml:space="preserve">
<style type="text/css">
	.st0{fill:#FFFFFF;}
</style>
<g id="Ebene_2_1_">
	<g id="Ebene_1-2">
		<g id="Gruppe_45">
			<g id="Pfad_16">
				<path id="Pfad_64" class="st0" d="M342.6,81.3c-26.4,0.6-53.7,1-81.3,1.4l-41.8,0.5l-42.2,0.4c-28.3,0.2-56.8,0.4-85.4,0.3
					s-57.2-0.4-85.5-0.8L0,83.1l0.3-2c0.9-6.5,1.7-12.9,2.3-19.4L3.2,52l0.2-9.7c0-6.5-0.2-12.9-0.6-19.4L1,3.6L0.9,1.8l5.5-0.1
					c28-0.4,55.9-0.7,83.9-1l83.9-0.5C202.1,0.2,230.1,0,258,0s55.9,0.1,83.9,0.2h4.3C344.6,30,342.6,81.3,342.6,81.3z M341.2,80.9
					c-0.4-51-0.2-49.6-1.6-76.4l4.5,1.6c-28,0.1-58.1,1.1-86,1s-55.9-0.2-83.9-0.3L90.3,6.3c-28-0.2-56-0.6-83.9-1l5.3-1.8L9.9,22.9
					c-0.4,6.5-0.6,12.9-0.6,19.4L9.6,52l0.7,9.7c0.6,6.5,1.4,12.9,2.3,19.4L6.4,79c27.6-0.4,54.9-0.7,82.3-0.8s54.8,0.2,82.4,0.3
					l41.6,0.4l42.1,0.5C283.1,79.9,311.8,80.3,341.2,80.9L341.2,80.9z"/>
			</g>
		</g>
		<path class="st0" d="M34.9,60.5V25h10.9c2.9,0,5.8,0.7,8.4,2.1c2.5,1.4,4.5,3.5,5.8,6c1.4,2.7,2.1,5.8,2.1,8.9v1.6
			c0.1,3.1-0.6,6.1-2,8.8c-1.3,2.5-3.3,4.6-5.8,6c-2.6,1.4-5.4,2.2-8.4,2.2L34.9,60.5z M42.2,30.9v23.7h3.5c2.5,0.1,4.9-0.9,6.6-2.8
			c1.5-1.9,2.3-4.5,2.3-8v-1.9c0-3.6-0.8-6.3-2.2-8.2c-1.6-1.9-4.1-3-6.6-2.8H42.2z"/>
		<path class="st0" d="M82.2,60.5c-0.4-0.7-0.6-1.5-0.7-2.4c-1.7,1.9-4.1,3-6.7,2.9c-2.3,0.1-4.6-0.7-6.4-2.2
			c-1.7-1.4-2.6-3.5-2.6-5.7c-0.1-2.5,1-5,3.1-6.5c2.1-1.5,5.1-2.2,9-2.3h3.2v-1.5c0.1-1.1-0.3-2.1-0.9-2.9c-0.8-0.8-1.9-1.2-3-1.1
			c-1-0.1-2,0.2-2.8,0.9c-0.7,0.6-1,1.4-1,2.3h-7c0-1.5,0.5-3,1.4-4.2c1-1.4,2.4-2.4,4-3.1c1.8-0.8,3.8-1.1,5.8-1.1
			c2.8-0.2,5.5,0.7,7.8,2.5c2,1.8,3,4.3,2.9,7v11.4c-0.1,1.9,0.2,3.9,1,5.7v0.4H82.2z M76.4,55.6c1,0,2-0.2,2.9-0.7
			c0.8-0.4,1.5-1.1,2-1.9v-4.5h-2.7c-3.5,0-5.4,1.2-5.6,3.7v0.4c0,0.8,0.3,1.6,0.9,2.2C74.6,55.3,75.5,55.6,76.4,55.6z"/>
		<path class="st0" d="M102.2,27.6v6.5h4.5v5.2h-4.5v13.2c-0.1,0.7,0.1,1.5,0.6,2.1c0.6,0.5,1.4,0.7,2.2,0.6c0.7,0,1.4-0.1,2.1-0.2
			v5.3c-1.4,0.4-2.8,0.6-4.3,0.6c-5,0-7.5-2.5-7.6-7.5V39.3h-3.9v-5.2h3.8v-6.5H102.2z"/>
		<path class="st0" d="M122.8,61c-3.5,0.1-6.9-1.1-9.5-3.6c-2.5-2.5-3.8-6-3.7-9.5v-0.7c0-2.5,0.5-4.9,1.5-7.1c1-2,2.5-3.7,4.4-4.8
			c1.9-1.2,4.2-1.7,6.4-1.7c3.2-0.2,6.3,1.1,8.5,3.4c2.1,2.3,3.1,5.5,3.1,9.7v2.9h-16.8c0.2,1.6,0.9,3.1,2.1,4.2
			c1.2,1.1,2.8,1.6,4.4,1.6c2.5,0.1,4.9-1,6.4-3l3.5,3.9c-1.1,1.5-2.6,2.7-4.3,3.5C126.9,60.6,124.9,61,122.8,61z M122,39.3
			c-1.3,0-2.5,0.5-3.4,1.4c-1,1.2-1.5,2.6-1.7,4.1h9.8v-0.6c0-1.3-0.4-2.6-1.3-3.6C124.5,39.7,123.3,39.2,122,39.3L122,39.3z"/>
		<path class="st0" d="M144.1,34.1l0.2,3c1.8-2.3,4.7-3.6,7.6-3.5c2.8,0,4.9,0.8,6.2,2.5c1.4,1.7,2.1,4.1,2.1,7.4v17.1h-7.1V43.6
			c0.1-1.2-0.3-2.3-1-3.3c-0.9-0.8-2.1-1.1-3.2-1c-1.9-0.1-3.6,0.9-4.5,2.5v18.6h-7.1V34.1H144.1z"/>
		<path class="st0" d="M180,53.2c0-0.9-0.5-1.6-1.3-2c-1.3-0.6-2.7-1.1-4.1-1.3c-6.3-1.3-9.4-4-9.4-8c0-2.3,1-4.5,2.9-5.9
			c2.2-1.6,4.9-2.5,7.6-2.3c2.9-0.2,5.7,0.7,8.1,2.3c1.9,1.4,3.1,3.7,3,6.2h-7.1c0-0.9-0.3-1.8-1-2.5c-1.7-1.2-4-1.3-5.8-0.2
			c-0.6,0.5-1,1.2-1,2c0,0.8,0.4,1.5,1.1,1.9c1.2,0.6,2.4,1.1,3.8,1.2c1.5,0.3,3,0.7,4.4,1.2c3.7,1.4,5.6,3.7,5.6,7.1
			c0,2.4-1.1,4.6-3.1,5.8c-2.4,1.6-5.2,2.4-8,2.2c-2,0-4-0.4-5.9-1.2c-1.6-0.7-3-1.8-4-3.2c-1-1.3-1.5-2.9-1.5-4.5h6.7
			c0,1.1,0.5,2.2,1.4,2.9c1,0.7,2.2,1.1,3.5,1c1.1,0.1,2.1-0.2,3.1-0.8C179.6,54.8,180,54,180,53.2z"/>
		<path class="st0" d="M202.4,55.3c1.2,0,2.3-0.3,3.2-1.1c0.8-0.7,1.3-1.8,1.3-2.9h6.6c0,1.7-0.5,3.4-1.4,4.9c-1,1.5-2.4,2.7-4,3.5
			c-1.7,0.8-3.6,1.3-5.5,1.2c-3.4,0.2-6.6-1.1-8.9-3.6c-2.2-2.4-3.3-5.7-3.3-10V47c0-4.1,1.1-7.3,3.2-9.8c2.3-2.5,5.5-3.8,8.9-3.6
			c2.9-0.2,5.8,0.9,8,2.8c2,2,3.1,4.7,3,7.5h-6.6c0-1.2-0.4-2.4-1.3-3.3c-1.9-1.8-4.9-1.7-6.7,0.2c-0.1,0.1-0.2,0.2-0.3,0.3
			c-0.8,1.2-1.3,3.1-1.3,5.8v0.7c0,2.7,0.4,4.7,1.2,5.9C199.4,54.7,200.9,55.4,202.4,55.3z"/>
		<path class="st0" d="M224.3,37c1.7-2.2,4.3-3.4,7.1-3.4c5.7,0,8.6,3.3,8.7,10v16.9H233V43.8c0.1-1.2-0.3-2.4-1-3.4
			c-0.9-0.8-2.1-1.2-3.2-1.1c-1.8-0.1-3.6,0.8-4.5,2.4v18.8h-7V23h7L224.3,37z"/>
		<path class="st0" d="M261.2,57.8c-1.8,2.1-4.5,3.3-7.2,3.2c-2.4,0.2-4.8-0.7-6.5-2.4c-1.5-1.6-2.2-4-2.3-7.2V34.1h7.1v17.1
			c0,2.8,1.3,4.1,3.8,4.1c2.4,0,4-0.8,4.9-2.5V34.1h7.1v26.4h-6.6L261.2,57.8z"/>
		<path class="st0" d="M281.8,27.6v6.5h4.5v5.2h-4.5v13.2c-0.1,0.7,0.1,1.5,0.6,2.1c0.6,0.5,1.4,0.7,2.1,0.6c0.7,0,1.4-0.1,2.1-0.2
			v5.3c-1.4,0.4-2.8,0.6-4.3,0.6c-4.9,0-7.5-2.5-7.6-7.5V39.3h-3.9v-5.2h3.9v-6.5H281.8z"/>
		<path class="st0" d="M298.4,54.8h12.9v5.7h-21.9v-4.3l12.4-16.4h-12.1v-5.7h21.2v4.2L298.4,54.8z"/>
	</g>
</g>
</svg>
