<svg xmlns="http://www.w3.org/2000/svg" viewBox="0 0 322.17 83.99"><g id="Ebene_2" data-name="Ebene 2"><g id="Ebene_1-2" data-name="Ebene 1"><g id="Gruppe_45" data-name="Gruppe 45"><g id="Pfad_16" data-name="Pfad 16"><path id="Pfad_64" data-name="Pfad 64" d="M318.84,81.33c-24.59.55-50,1-75.69,1.38l-38.86.53-39.32.4c-26.37.18-52.85.39-79.45.34S32.33,83.62,6,83.18l-6-.1.25-2C1,74.62,1.8,68.16,2.36,61.7L3,52l.22-9.69q0-9.69-.57-19.38L1,3.56.81,1.82l5.11-.07C31.94,1.4,58,1,84,.75L162,.26c26-.11,52-.29,78.07-.26s52,.12,78.06.21h4C320.69,30,318.84,81.33,318.84,81.33Zm-1.29-.46c-.41-51-.22-49.59-1.5-76.37l4.15,1.57c-26,.09-54,1.09-80.06,1s-52-.15-78.07-.26L84,6.32C58,6.09,32,5.71,6,5.32l5-1.81L9.24,22.89c-.4,6.46-.52,12.92-.57,19.38L8.9,52l.63,9.68c.57,6.47,1.32,12.93,2.11,19.39L6,79c25.64-.44,51.11-.74,76.55-.8s51,.16,76.68.34l38.74.4,39.2.53c26.33.39,53,.83,80.44,1.38Z" fill="#1f1f1f"/></g></g><path d="M44.84,57.69H37.51V22.14h7.33Z" fill="#1f1f1f"/><path d="M57.78,31.27l.22,3a9.26,9.26,0,0,1,7.59-3.44q5.1,0,7,4a9.07,9.07,0,0,1,7.93-4c2.86,0,5,.83,6.4,2.5S89,37.47,89,40.82V57.69H82V40.85a5.08,5.08,0,0,0-.88-3.29,3.91,3.91,0,0,0-3.1-1,4.41,4.41,0,0,0-4.4,3l0,18.14H66.54V40.87a5,5,0,0,0-.9-3.32,4,4,0,0,0-3.08-1A4.56,4.56,0,0,0,58.22,39V57.69H51.16V31.27Z" fill="#1f1f1f"/><path d="M118.23,44.73c0,4.07-.93,7.32-2.77,9.78A8.92,8.92,0,0,1,108,58.18a8.25,8.25,0,0,1-6.47-2.78V67.85h-7V31.27H101l.24,2.59a8.29,8.29,0,0,1,6.69-3.07,9,9,0,0,1,7.6,3.61q2.7,3.62,2.71,10Zm-7.06-.52a10.38,10.38,0,0,0-1.31-5.68,4.24,4.24,0,0,0-3.79-2,4.63,4.63,0,0,0-4.57,2.54V49.88a4.7,4.7,0,0,0,4.62,2.61Q111.17,52.49,111.17,44.21Z" fill="#1f1f1f"/><path d="M137.44,37.89a19.15,19.15,0,0,0-2.54-.19q-4,0-5.25,2.71V57.69H122.6V31.27h6.66l.2,3.15a6.52,6.52,0,0,1,5.88-3.63,7.5,7.5,0,0,1,2.2.31Z" fill="#1f1f1f"/><path d="M152.53,58.18a12.94,12.94,0,0,1-9.46-3.57,12.63,12.63,0,0,1-3.65-9.49v-.69A15.87,15.87,0,0,1,141,37.32a11.25,11.25,0,0,1,4.35-4.84,12.26,12.26,0,0,1,6.44-1.69,11,11,0,0,1,8.53,3.41q3.1,3.42,3.11,9.7v2.88H146.57a6.61,6.61,0,0,0,2.06,4.15A6.25,6.25,0,0,0,153,52.49a7.6,7.6,0,0,0,6.37-3l3.47,3.88a10.58,10.58,0,0,1-4.3,3.5A14,14,0,0,1,152.53,58.18Zm-.81-21.71a4.39,4.39,0,0,0-3.4,1.43A7.41,7.41,0,0,0,146.64,42h9.82V41.4a5.3,5.3,0,0,0-1.27-3.64A4.56,4.56,0,0,0,151.72,36.47Z" fill="#1f1f1f"/><path d="M181.7,50.39a2.27,2.27,0,0,0-1.28-2A14.76,14.76,0,0,0,176.31,47q-9.44-2-9.43-8a7.28,7.28,0,0,1,2.92-5.87,11.78,11.78,0,0,1,7.63-2.35,12.71,12.71,0,0,1,8,2.36,7.47,7.47,0,0,1,3,6.16h-7.06a3.43,3.43,0,0,0-1-2.51,5.2,5.2,0,0,0-5.81-.18,2.55,2.55,0,0,0-1,2.05,2.17,2.17,0,0,0,1.11,1.89,11.41,11.41,0,0,0,3.75,1.25A30.31,30.31,0,0,1,183,43q5.59,2.05,5.59,7.11a6.86,6.86,0,0,1-3.1,5.84,13.37,13.37,0,0,1-8,2.24A14.11,14.11,0,0,1,171.56,57a9.88,9.88,0,0,1-4-3.25,7.54,7.54,0,0,1-1.47-4.46h6.69a3.68,3.68,0,0,0,1.39,2.88,5.52,5.52,0,0,0,3.47,1,5.12,5.12,0,0,0,3.06-.76A2.39,2.39,0,0,0,181.7,50.39Z" fill="#1f1f1f"/><path d="M207.41,50.39a2.29,2.29,0,0,0-1.28-2A14.85,14.85,0,0,0,202,47q-9.42-2-9.42-8a7.25,7.25,0,0,1,2.92-5.87,11.76,11.76,0,0,1,7.63-2.35,12.71,12.71,0,0,1,8,2.36,7.47,7.47,0,0,1,3,6.16h-7.06a3.43,3.43,0,0,0-1-2.51,5.22,5.22,0,0,0-5.82-.18,2.54,2.54,0,0,0-1,2.05,2.17,2.17,0,0,0,1.11,1.89,11.41,11.41,0,0,0,3.75,1.25A31,31,0,0,1,208.68,43q5.59,2.05,5.59,7.11a6.86,6.86,0,0,1-3.1,5.84,13.39,13.39,0,0,1-8,2.24A14.07,14.07,0,0,1,197.27,57a9.88,9.88,0,0,1-4-3.25,7.54,7.54,0,0,1-1.47-4.46h6.69a3.65,3.65,0,0,0,1.39,2.88,5.5,5.5,0,0,0,3.47,1,5.12,5.12,0,0,0,3.06-.76A2.42,2.42,0,0,0,207.41,50.39Z" fill="#1f1f1f"/><path d="M234.63,55a8.86,8.86,0,0,1-7.22,3.17q-4.26,0-6.49-2.44c-1.49-1.63-2.25-4-2.28-7.16V31.27h7.06V48.36q0,4.13,3.76,4.13,3.58,0,4.93-2.49V31.27h7.08V57.69h-6.64Z" fill="#1f1f1f"/><path d="M253.41,31.27l.22,3a9.26,9.26,0,0,1,7.59-3.44q5.1,0,7,4a9.07,9.07,0,0,1,7.93-4c2.86,0,5,.83,6.4,2.5s2.1,4.18,2.1,7.53V57.69h-7.08V40.85a5.08,5.08,0,0,0-.88-3.29,3.91,3.91,0,0,0-3.1-1,4.41,4.41,0,0,0-4.4,3l0,18.14h-7.06V40.87a5,5,0,0,0-.9-3.32,4,4,0,0,0-3.08-1A4.56,4.56,0,0,0,253.85,39V57.69h-7.06V31.27Z" fill="#1f1f1f"/></g></g></svg>