<svg xmlns="http://www.w3.org/2000/svg" width="75.239" height="53.025" viewBox="0 0 75.239 53.025">
    <defs>
        <style>.a{fill:#1d1d1b;}</style>
    </defs>
    <g transform="translate(0 -0.024)">
        <g transform="translate(0 0.024)">
            <path class="a" d="M73.248,51.374c-5.642.348-11.48.624-17.388.872l-8.927.333L37.9,52.83c-6.057.115-12.141.249-18.252.215s-12.226-.227-18.28-.508L0,52.475l.056-1.248c.182-4.08.364-8.162.488-12.243l.144-6.122.051-6.122q0-6.12-.131-12.243L.226,2.253.193,1.161l1.174-.049C7.345.892,13.322.648,19.3.5L37.234.2C43.211.133,49.19.02,55.168.038,61.15-.016,67.123.106,73.1.162l2.138.02-.047,2.071L74.9,14.84c-.151,4.173-.268,8.343-.462,12.454l-.566,12.219Zm-.293-.295-.628-12.621-.564-12.272c-.195-4.051-.311-8.044-.462-12.034l-.238-9.788c-5.979.056-9.917.157-15.894.111-5.979.016-11.957-.1-17.934-.166L19.3,4C13.322,3.856,8.448,3.66,2.47,3.431L2.126,14.5C2.035,18.584,2,22.658,2,26.739l.051,6.122.131,6.122c.131,4.08.422,10.876.422,10.876,5.9-.28,10.5-.409,16.341-.45s11.719.1,17.617.213l8.9.251,9.005.333c6.055.248,12.177.524,18.485.872Z" transform="translate(0 -0.024)"/>
            <path class="a" d="M79.133,70.8h-3.2l-1.842,8.49L72.248,70.8h-3.2L65.467,84.355l-.067.26h3.074l2.169-8.7,1.747,8.7h3.4l1.747-8.7,2.169,8.7h3.076L79.175,70.955Z" transform="translate(-53.498 -57.919)"/>
            <path class="a" d="M171.336,80.822a13.853,13.853,0,0,0,1.707-2.266l.1-.182-2.308-1.38-.107.182a12.708,12.708,0,0,1-1.056,1.456l-1.691-2.215a5.213,5.213,0,0,0,2.35-4.057c0-1.23-1.028-3.061-3.866-3.061a3.58,3.58,0,0,0-3.4,1.82,3.5,3.5,0,0,0,.5,3.664l.808,1.054-.033.024a10.293,10.293,0,0,0-2.715,2.411l-.035.053v2.75l.018.087a4.746,4.746,0,0,0,4.439,2.455,6.05,6.05,0,0,0,3.381-1.13l.688.9h3.165Zm-4.939-6.5-.459-.593a1.363,1.363,0,0,1-.329-1.42,1.127,1.127,0,0,1,.928-.582,1,1,0,0,1,.961,1.056C167.5,73.146,167.306,73.55,166.4,74.327Zm-1.96,4.746a14.757,14.757,0,0,1,1.472-1.216l1.911,2.521a3.458,3.458,0,0,1-1.907.677,2.069,2.069,0,0,1-1.476-.659Z" transform="translate(-132.181 -56.692)"/>
            <path class="a" d="M239,79.568a4.5,4.5,0,0,0,2.3-3.764,5,5,0,0,0-4.994-4.994h-4.8V84.625h2.866V80.032h1.787l2.3,4.594h3.147Zm-.6-3.9a1.871,1.871,0,0,1-.728,1.649h-3.3V73.5h1.936a2.129,2.129,0,0,1,2.087,2.173Z" transform="translate(-189.376 -57.927)"/>
            <path class="a" d="M77.633,160.576l-1.747-8.7H72.48l-1.745,8.7-2.169-8.7H65.49L69.1,165.541l.04.155h3.2l1.844-8.49,1.842,8.49h3.2l3.583-13.555.067-.26H79.8Z" transform="translate(-53.571 -124.243)"/>
            <path class="a" d="M177.624,162.982V165.7H168.4V151.88h9.032v2.714h-6.126v8.388h6.317" transform="translate(-137.752 -124.243)"/>
            <path class="a" d="M303.361,158.792a19.472,19.472,0,0,0,2.646-2.746l.046-.058V151.88h-2.912v3a16.463,16.463,0,0,1-3.64,3.185V151.88H296.64V165.7h2.866v-4.31c.588-.3,1.13-.622,1.6-.91l3.187,5.221h3.363Z" transform="translate(-242.653 -124.243)"/>
            <path class="a" d="M200.446,160.646a4.5,4.5,0,0,0,2.3-3.762,5,5,0,0,0-4.994-4.994h-4.8v2.7h2.912v-1.456l2.144,1.414,2.142,1.414-2.142,1.414-2.144,1.412v-1.456h-7.207v-1.369l-2.144,1.414-2.142,1.412,2.142,1.414,2.144,1.414v-1.316h4.3v5.4h2.866V161.11h1.789l2.3,4.594h3.145Z" transform="translate(-150.816 -124.251)"/>
        </g>
    </g>
</svg>