<svg xmlns="http://www.w3.org/2000/svg" width="116.346" height="81.997" viewBox="0 0 116.346 81.997">
    <style>.test {fill: white}</style>
    <path class="test" d="M113.268,79.429c-8.724.538-17.753.965-26.888,1.348l-13.8.515-13.97.388c-9.366.177-18.774.386-28.225.332s-18.907-.352-28.267-.785L0,81.132.087,79.2c.281-6.31.563-12.622.754-18.932L1.064,50.8l.079-9.467q0-9.465-.2-18.932L.349,3.471.3,1.782l1.815-.076C11.359,1.366,20.6.989,29.846.763L57.578.3C66.82.192,76.065.018,85.31.046c9.251-.084,18.487.1,27.729.191l3.307.031-.073,3.2-.447,19.464c-.234,6.453-.414,12.9-.715,19.258l-.875,18.9Zm-.453-.456-.971-19.517-.872-18.977c-.3-6.265-.481-12.439-.715-18.608l-.369-15.135c-9.245.087-15.335.242-24.577.172-9.245.025-18.49-.149-27.732-.256L29.846,6.175C20.6,5.95,13.064,5.646,3.819,5.292L3.287,22.4C3.146,28.724,3.1,35.025,3.1,41.334L3.175,50.8l.2,9.467c.2,6.31.653,16.818.653,16.818,9.127-.433,16.233-.633,25.27-.7s18.121.155,27.243.329L70.3,77.11l13.925.515c9.363.383,18.831.811,28.585,1.348Z" transform="translate(0 -0.024)"/>
    <path class="test" d="M86.637,70.8H81.689L78.841,83.929,75.99,70.8H71.046L65.5,91.761l-.1.4h4.753l3.355-13.45,2.7,13.45h5.263l2.7-13.45,3.355,13.45h4.756L86.7,71.039Z" transform="translate(-46.994 -50.882)"/>
    <path class="test" d="M176.661,87.117a21.422,21.422,0,0,0,2.64-3.5l.158-.281L175.89,81.2l-.166.281a19.648,19.648,0,0,1-1.632,2.251l-2.615-3.425c2.412-1.891,3.633-4,3.633-6.273,0-1.9-1.59-4.734-5.978-4.734-2.46,0-4.376,1.027-5.263,2.814a5.41,5.41,0,0,0,.774,5.665l1.25,1.629-.051.037a15.918,15.918,0,0,0-4.2,3.729l-.053.082v4.252l.028.135a7.34,7.34,0,0,0,6.864,3.8,9.356,9.356,0,0,0,5.229-1.748l1.064,1.393h4.894Zm-7.638-10.044-.709-.917a2.108,2.108,0,0,1-.509-2.2,1.742,1.742,0,0,1,1.435-.9,1.548,1.548,0,0,1,1.486,1.632C170.737,75.247,170.43,75.871,169.023,77.073Zm-3.031,7.34a22.821,22.821,0,0,1,2.277-1.88l2.955,3.9a5.347,5.347,0,0,1-2.949,1.047,3.2,3.2,0,0,1-2.282-1.019Z" transform="translate(-116.114 -49.804)"/>
    <path class="test" d="M243.1,84.352a6.958,6.958,0,0,0,3.56-5.82,7.731,7.731,0,0,0-7.722-7.722H231.51V92.173h4.433v-7.1h2.764l3.554,7.1h4.866Zm-.934-6.028a2.893,2.893,0,0,1-1.126,2.55h-5.1v-5.91h2.994a3.293,3.293,0,0,1,3.228,3.36Z" transform="translate(-166.356 -50.889)"/>
    <path class="test" d="M84.267,165.327l-2.7-13.447H76.3l-2.7,13.447L70.246,151.88H65.49L71.074,173l.062.239h4.948l2.851-13.129,2.848,13.129H86.73l5.541-20.961.1-.4H87.622Z" transform="translate(-47.059 -109.143)"/>
    <path class="test" d="M182.663,169.047v4.2H168.4V151.88h13.967v4.2h-9.473v12.971h9.768" transform="translate(-121.007 -109.143)"/>
    <path class="test" d="M307.033,162.569a30.114,30.114,0,0,0,4.092-4.247l.07-.09V151.88h-4.5v4.644a25.459,25.459,0,0,1-5.629,4.925V151.88H296.64v21.363h4.433v-6.664c.909-.462,1.748-.962,2.474-1.407l4.928,8.074h5.2Z" transform="translate(-213.156 -109.143)"/>
    <path class="test" d="M209.229,165.43a6.95,6.95,0,0,0,3.56-5.817,7.731,7.731,0,0,0-7.722-7.722h-7.427v4.182h4.5v-2.251l3.315,2.187,3.312,2.187-3.312,2.187-3.315,2.184v-2.251H191V158.2l-3.315,2.187-3.312,2.184,3.312,2.187L191,166.941v-2.035h6.642v8.344h4.433v-7.1h2.766l3.552,7.1h4.863Z" transform="translate(-132.483 -109.15)"/>
</svg>