<svg xmlns="http://www.w3.org/2000/svg" width="490.23" height="83.931" viewBox="0 0 490.23 83.931"><defs><style>.a{isolation:isolate;}.b{fill:#fff;}</style></defs><g transform="translate(0 -0.017)"><g class="a"><g class="a"><path class="b" d="M515.47,404h-7.32l-14.26-23.39V404h-7.33V368.48h7.33l14.28,23.44V368.48h7.3Z" transform="translate(-438.39 -342.03)"/><path class="b" d="M521.35,370.78a3.5,3.5,0,0,1,1.07-2.62,4.662,4.662,0,0,1,5.77,0,3.74,3.74,0,0,1,0,5.25,4.51,4.51,0,0,1-5.74,0,3.47,3.47,0,0,1-1.1-2.63Zm7.5,33.25h-7.08V377.61h7.08Z" transform="translate(-438.39 -342.03)"/><path class="b" d="M541.28,377.61l.22,3a9.27,9.27,0,0,1,7.59-3.45c3.4,0,5.74,1.35,7,4a9.09,9.09,0,0,1,7.94-4c2.86,0,5,.84,6.4,2.51s2.1,4.18,2.1,7.53V404h-7.08V387.18a5.06,5.06,0,0,0-.88-3.28,3.91,3.91,0,0,0-3.1-1,4.4,4.4,0,0,0-4.4,3v18.14H550V387.21a5,5,0,0,0-.9-3.32,3.93,3.93,0,0,0-3.08-1,4.59,4.59,0,0,0-4.35,2.49V404h-7.05V377.61Z" transform="translate(-438.39 -342.03)"/><path class="b" d="M584.56,377.61l.22,3a9.27,9.27,0,0,1,7.59-3.45c3.41,0,5.74,1.35,7,4a9.09,9.09,0,0,1,7.94-4q4.29,0,6.39,2.51t2.1,7.53V404h-7.08V387.18a5,5,0,0,0-.88-3.28,3.89,3.89,0,0,0-3.1-1,4.4,4.4,0,0,0-4.39,3v18.14h-7V387.21a5,5,0,0,0-.91-3.32,3.9,3.9,0,0,0-3.07-1,4.58,4.58,0,0,0-4.35,2.49V404h-7V377.61Z" transform="translate(-438.39 -342.03)"/><path class="b" d="M645.28,389.77l-3.81,4.1V404h-7.32V368.48h7.32V384.6l3.22-4.42,9.06-11.7h9l-12.62,15.8,13,19.75h-8.72Z" transform="translate(-438.39 -342.03)"/><path class="b" d="M663.66,390.58a15.67,15.67,0,0,1,1.52-7,11.09,11.09,0,0,1,4.35-4.76,12.77,12.77,0,0,1,6.61-1.69,12.06,12.06,0,0,1,8.73,3.28,13.13,13.13,0,0,1,3.77,8.88l.05,1.81a13.8,13.8,0,0,1-3.4,9.75,13.14,13.14,0,0,1-18.22,0q-3.41-3.67-3.41-10Zm7.06.5a9.92,9.92,0,0,0,1.41,5.76,5.09,5.09,0,0,0,8.06,0q1.44-2,1.44-6.3a9.79,9.79,0,0,0-1.44-5.72,4.69,4.69,0,0,0-4.05-2,4.63,4.63,0,0,0-4,2Q670.72,386.86,670.72,391.08Z" transform="translate(-438.39 -342.03)"/><path class="b" d="M699.53,377.61l.22,3.05a9.24,9.24,0,0,1,7.59-3.54c2.8,0,4.88.83,6.25,2.47s2.07,4.1,2.1,7.37V404h-7.06V387.1a4.6,4.6,0,0,0-1-3.26,4.41,4.41,0,0,0-3.25-1,4.86,4.86,0,0,0-4.47,2.54V404h-7.05V377.61Z" transform="translate(-438.39 -342.03)"/><path class="b" d="M729.48,371.12v6.49H734v5.18h-4.52V396a3.16,3.16,0,0,0,.56,2.1,2.8,2.8,0,0,0,2.15.64,11.659,11.659,0,0,0,2.08-.17v5.34a14.35,14.35,0,0,1-4.27.64q-7.43,0-7.57-7.5V382.79h-3.86v-5.18h3.86v-6.49Z" transform="translate(-438.39 -342.03)"/><path class="b" d="M753.24,404a7.809,7.809,0,0,1-.71-2.37,8.52,8.52,0,0,1-6.66,2.86,9.38,9.38,0,0,1-6.44-2.25,7.22,7.22,0,0,1-2.55-5.66,7.49,7.49,0,0,1,3.11-6.45q3.12-2.24,9-2.27h3.25v-1.51a4.39,4.39,0,0,0-.94-2.93,3.72,3.72,0,0,0-3-1.1,4.17,4.17,0,0,0-2.79.85,2.91,2.91,0,0,0-1,2.35h-7a7.11,7.11,0,0,1,1.41-4.25,9.39,9.39,0,0,1,4-3.06,14.41,14.41,0,0,1,5.81-1.12,11.51,11.51,0,0,1,7.75,2.46,8.58,8.58,0,0,1,2.87,6.9V397.9a12.419,12.419,0,0,0,1,5.68V404Zm-5.84-4.91a6.089,6.089,0,0,0,2.88-.69,4.67,4.67,0,0,0,2-1.87V392H749.6q-5.29,0-5.64,3.66v.41a2.86,2.86,0,0,0,.92,2.18,3.61,3.61,0,0,0,2.52.87Z" transform="translate(-438.39 -342.03)"/><path class="b" d="M774.33,393.43,771.79,396v8h-7V366.5h7v20.78l1.37-1.76,6.76-7.94h8.47l-9.54,11L789.22,404h-8.1Z" transform="translate(-438.39 -342.03)"/><path class="b" d="M799.89,371.12v6.49h4.52v5.18h-4.52V396a3.1,3.1,0,0,0,.57,2.1,2.76,2.76,0,0,0,2.14.64,11.656,11.656,0,0,0,2.08-.17v5.34a14.35,14.35,0,0,1-4.27.64q-7.42,0-7.57-7.5V382.79H789v-5.18h3.86v-6.49Z" transform="translate(-438.39 -342.03)"/><path class="b" d="M836.1,404a7.809,7.809,0,0,1-.71-2.37,8.52,8.52,0,0,1-6.66,2.86,9.38,9.38,0,0,1-6.44-2.25,7.22,7.22,0,0,1-2.55-5.66,7.49,7.49,0,0,1,3.11-6.45q3.12-2.24,9-2.27h3.25v-1.51a4.33,4.33,0,0,0-.94-2.93,3.72,3.72,0,0,0-3-1.1,4.17,4.17,0,0,0-2.79.85,2.91,2.91,0,0,0-1,2.35h-7a7.111,7.111,0,0,1,1.41-4.25,9.39,9.39,0,0,1,4-3.06,14.409,14.409,0,0,1,5.81-1.12,11.51,11.51,0,0,1,7.75,2.46,8.58,8.58,0,0,1,2.87,6.9V397.9a12.421,12.421,0,0,0,1.05,5.68V404Zm-5.84-4.91a6.13,6.13,0,0,0,2.89-.69,4.7,4.7,0,0,0,2-1.87V392h-2.64q-5.3,0-5.64,3.66v.41a2.84,2.84,0,0,0,.93,2.18,3.57,3.57,0,0,0,2.46.87Z" transform="translate(-438.39 -342.03)"/><path class="b" d="M863.42,401.34a8.84,8.84,0,0,1-7.23,3.18,8.37,8.37,0,0,1-6.48-2.44q-2.24-2.44-2.28-7.16V377.61h7.05V394.7c0,2.75,1.26,4.13,3.76,4.13s4-.83,4.93-2.49V377.61h7.08V404h-6.64Z" transform="translate(-438.39 -342.03)"/><path class="b" d="M877.51,404V382.79h-3.93v-5.18h3.93v-2.24a9.11,9.11,0,0,1,2.55-6.9c1.7-1.64,4.08-2.45,7.14-2.45a16.853,16.853,0,0,1,3.59.48l-.08,5.47a9.269,9.269,0,0,0-2.14-.22c-2.66,0-4,1.25-4,3.74v2.12h5.24v5.18h-5.24V404Z" transform="translate(-438.39 -342.03)"/></g></g><path class="b" d="M923.5,423.32c-37.41.55-76,1-115.16,1.38l-59.12.53-59.84.4c-40.11.18-80.4.39-120.87.34s-81-.36-121.07-.8l-9.05-.1.37-2c1.22-6.46,2.37-12.92,3.23-19.38l1-9.69.33-9.69c-.06-6.46-.26-12.92-.87-19.38l-2.52-19.38-.23-1.74,7.78-.07q59.38-.52,118.77-1L685,342.31c39.59-.11,79.18-.29,118.77-.26s79.18.12,118.77.21h6.08C926.32,372,923.5,423.32,923.5,423.32Zm-2-.46c-.62-51-.35-49.59-2.29-76.37l6.31,1.57c-39.59.09-82.22,1.09-121.81,1s-79.18-.15-118.77-.26l-118.78-.49q-59.39-.34-118.77-1l7.55-1.81-2.52,19.38c-.61,6.46-.81,12.92-.87,19.38l.33,9.7,1,9.68c.87,6.47,2,12.93,3.23,19.39L447.44,421c39.09-.44,77.77-.74,116.47-.8s77.6.16,116.67.34l58.94.4,59.65.53c40.06.4,80.61.84,122.38,1.39Z" transform="translate(-438.39 -342.03)"/></g></svg>