<svg xmlns="http://www.w3.org/2000/svg" viewBox="0 0 595.61 83.99"><g id="Ebene_2" data-name="Ebene 2"><g id="Ebene_1-2" data-name="Ebene 1"><g id="Gruppe_45" data-name="Gruppe 45"><g id="Pfad_16" data-name="Pfad 16"><path id="Pfad_53" data-name="Pfad 53" d="M589.31,81.33c-45.63.55-92.75,1-140.46,1.38l-72.12.53-73,.4c-48.93.18-98,.39-147.44.34s-98.77-.36-147.67-.8L0,82.91l.45-2C2,74.45,2.12,67.84,3.17,61.38l1.17-9.69L4.74,42A187.81,187.81,0,0,0,3.69,22.62L1.9,3.39,1.61,1.65l7.09.1q72.39-.53,144.87-1L298.44.26C346.69.15,395,0,443.32,0S539.9.12,588.19.21h7.42C592.75,30,589.31,81.33,589.31,81.33Zm-2.37-.46c-.77-51-.43-49.59-2.79-76.37l7.69,1.57c-48.25.09-100.3,1.09-148.58,1s-96.51-.15-144.88-.26L153.5,6.32Q81.13,6,8.64,5.32l5.44-1.81-2.3,19.11a190.65,190.65,0,0,0-1,19.38l.41,9.7,1.16,9.68C13.37,67.85,14,74.58,15.53,81L8.73,79c47.67-.44,94.85-.74,142.06-.8s94.66.16,142.31.34l71.9.4,72.74.53c48.88.39,98.34.83,149.28,1.38Z" fill="#fff"/></g></g><path d="M57.3,60.11H50L35.72,36.72V60.11H28.4V24.56h7.32L50,48V24.56h7.3Z" fill="#fff"/><path d="M75.39,60.6A13,13,0,0,1,65.93,57a12.67,12.67,0,0,1-3.65-9.5v-.68a16,16,0,0,1,1.54-7.12,11.31,11.31,0,0,1,4.36-4.83,12.23,12.23,0,0,1,6.43-1.7,11,11,0,0,1,8.53,3.42q3.12,3.42,3.12,9.69v2.88H69.44a6.53,6.53,0,0,0,2.06,4.16,6.25,6.25,0,0,0,4.36,1.56,7.63,7.63,0,0,0,6.37-3l3.47,3.89a10.66,10.66,0,0,1-4.3,3.5A14.09,14.09,0,0,1,75.39,60.6Zm-.8-21.71a4.44,4.44,0,0,0-3.41,1.42,7.36,7.36,0,0,0-1.67,4.08h9.81v-.57a5.21,5.21,0,0,0-1.27-3.64A4.53,4.53,0,0,0,74.59,38.89Z" fill="#fff"/><path d="M97.15,36.57a8.81,8.81,0,0,1,7-3.37q8.6,0,8.72,10V60.11h-7.06V43.38a4.84,4.84,0,0,0-1-3.35,4.15,4.15,0,0,0-3.24-1.09,4.8,4.8,0,0,0-4.49,2.39V60.11H90.09V22.61h7.06Z" fill="#fff"/><path d="M124.86,33.69l.22,3a9.27,9.27,0,0,1,7.59-3.45c3.4,0,5.74,1.35,7,4a9.09,9.09,0,0,1,7.94-4c2.86,0,5,.84,6.4,2.51s2.1,4.18,2.1,7.53V60.11H149V43.26a5.06,5.06,0,0,0-.88-3.28,3.91,3.91,0,0,0-3.1-1,4.4,4.4,0,0,0-4.4,3l0,18.14h-7.06V43.29a5,5,0,0,0-.9-3.32,3.93,3.93,0,0,0-3.08-1,4.59,4.59,0,0,0-4.35,2.49V60.11h-7.05V33.69Z" fill="#fff"/><path d="M173.68,60.6A13,13,0,0,1,164.22,57a12.67,12.67,0,0,1-3.65-9.5v-.68a16.08,16.08,0,0,1,1.54-7.12,11.31,11.31,0,0,1,4.36-4.83,12.23,12.23,0,0,1,6.43-1.7,10.94,10.94,0,0,1,8.53,3.42q3.12,3.42,3.12,9.69v2.88H167.73a6.53,6.53,0,0,0,2.06,4.16,6.25,6.25,0,0,0,4.36,1.56,7.61,7.61,0,0,0,6.37-3L184,55.84a10.66,10.66,0,0,1-4.3,3.5A14.09,14.09,0,0,1,173.68,60.6Zm-.8-21.71a4.44,4.44,0,0,0-3.41,1.42,7.36,7.36,0,0,0-1.67,4.08h9.81v-.57a5.21,5.21,0,0,0-1.27-3.64A4.52,4.52,0,0,0,172.88,38.89Z" fill="#fff"/><path d="M195.05,33.69l.22,3.05a9.2,9.2,0,0,1,7.59-3.54c2.8,0,4.88.83,6.25,2.47s2.06,4.1,2.1,7.37V60.11h-7.06V43.21a4.6,4.6,0,0,0-1-3.26,4.42,4.42,0,0,0-3.25-1,4.86,4.86,0,0,0-4.47,2.54V60.11h-7.05V33.69Z" fill="#fff"/><path d="M247.9,50.78a3.76,3.76,0,0,0-1.46-3.18,18.94,18.94,0,0,0-5.28-2.35,37.27,37.27,0,0,1-6-2.43q-6-3.27-6-8.81a8.61,8.61,0,0,1,1.62-5.14,10.63,10.63,0,0,1,4.67-3.53,17.64,17.64,0,0,1,6.82-1.27A16,16,0,0,1,249,25.45a10.82,10.82,0,0,1,4.62,3.9,10.16,10.16,0,0,1,1.65,5.71h-7.32a4.83,4.83,0,0,0-1.54-3.8,6.35,6.35,0,0,0-4.32-1.35A6.81,6.81,0,0,0,237.89,31a3.6,3.6,0,0,0-1.49,3,3.44,3.44,0,0,0,1.75,2.91,20,20,0,0,0,5.14,2.2q6.24,1.88,9.1,4.66a9.26,9.26,0,0,1,2.86,6.93A8.55,8.55,0,0,1,251.76,58q-3.49,2.63-9.4,2.63a18,18,0,0,1-7.47-1.51A11.8,11.8,0,0,1,229.75,55a10.53,10.53,0,0,1-1.77-6h7.35q0,5.88,7,5.88a6.85,6.85,0,0,0,4.08-1.06A3.48,3.48,0,0,0,247.9,50.78Z" fill="#fff"/><path d="M259.69,26.86a3.5,3.5,0,0,1,1.07-2.62,4,4,0,0,1,2.89-1,4,4,0,0,1,2.88,1,3.74,3.74,0,0,1,0,5.25,4.51,4.51,0,0,1-5.74,0A3.47,3.47,0,0,1,259.69,26.86Zm7.5,33.25h-7.08V33.69h7.08Z" fill="#fff"/><path d="M285.16,60.6A12.94,12.94,0,0,1,275.7,57a12.63,12.63,0,0,1-3.65-9.5v-.68a16,16,0,0,1,1.54-7.12,11.23,11.23,0,0,1,4.35-4.83,12.27,12.27,0,0,1,6.44-1.7,11,11,0,0,1,8.53,3.42Q296,40,296,46.31v2.88H279.2a6.63,6.63,0,0,0,2.06,4.16,6.25,6.25,0,0,0,4.36,1.56A7.61,7.61,0,0,0,292,52l3.47,3.89a10.66,10.66,0,0,1-4.3,3.5A14,14,0,0,1,285.16,60.6Zm-.81-21.71a4.42,4.42,0,0,0-3.4,1.42,7.44,7.44,0,0,0-1.68,4.08h9.82v-.57a5.26,5.26,0,0,0-1.27-3.64A4.56,4.56,0,0,0,284.35,38.89Z" fill="#fff"/><path d="M324.07,45.85l-3.8,4.1V60.11h-7.33V24.56h7.33V40.67l3.22-4.41,9.06-11.7h9l-12.62,15.8,13,19.75h-8.71Z" fill="#fff"/><path d="M342.46,46.66a15.67,15.67,0,0,1,1.51-7,11.05,11.05,0,0,1,4.36-4.76,12.76,12.76,0,0,1,6.6-1.69,12,12,0,0,1,8.73,3.27,13.13,13.13,0,0,1,3.77,8.89l.05,1.81q0,6.07-3.39,9.75a13.14,13.14,0,0,1-18.23,0q-3.41-3.66-3.4-10Zm7.05.5a9.86,9.86,0,0,0,1.42,5.75,5.08,5.08,0,0,0,8.06,0q1.44-2,1.44-6.3A9.77,9.77,0,0,0,359,40.92a4.7,4.7,0,0,0-4.06-2,4.59,4.59,0,0,0-4,2C350,42.25,349.51,44.34,349.51,47.16Z" fill="#fff"/><path d="M378.32,33.69l.22,3.05a9.23,9.23,0,0,1,7.59-3.54c2.8,0,4.89.83,6.25,2.47s2.07,4.1,2.1,7.37V60.11h-7.05V43.21a4.6,4.6,0,0,0-1-3.26,4.38,4.38,0,0,0-3.24-1,4.86,4.86,0,0,0-4.47,2.54V60.11h-7.06V33.69Z" fill="#fff"/><path d="M408.28,27.2v6.49h4.51v5.18h-4.51V52.05a3.11,3.11,0,0,0,.56,2.1,2.83,2.83,0,0,0,2.15.64,10.63,10.63,0,0,0,2.07-.18V60a14.58,14.58,0,0,1-4.27.64q-7.43,0-7.57-7.5V38.87h-3.85V33.69h3.85V27.2Z" fill="#fff"/><path d="M432,60.11a7.91,7.91,0,0,1-.7-2.37,8.57,8.57,0,0,1-6.67,2.86,9.36,9.36,0,0,1-6.43-2.25,7.22,7.22,0,0,1-2.55-5.66,7.46,7.46,0,0,1,3.11-6.45c2.07-1.5,5.07-2.25,9-2.27H431V42.46a4.33,4.33,0,0,0-.94-2.93,3.65,3.65,0,0,0-3-1.1,4.22,4.22,0,0,0-2.8.85,2.92,2.92,0,0,0-1,2.35h-7.06a7.05,7.05,0,0,1,1.42-4.25,9.46,9.46,0,0,1,4-3.07,14.61,14.61,0,0,1,5.81-1.11,11.49,11.49,0,0,1,7.75,2.46,8.54,8.54,0,0,1,2.87,6.89V54a12.71,12.71,0,0,0,1.05,5.69v.42ZM426.2,55.2a6,6,0,0,0,2.88-.7A4.51,4.51,0,0,0,431,52.64V48.1H428.4q-5.31,0-5.64,3.66l0,.41a2.84,2.84,0,0,0,.93,2.18A3.6,3.6,0,0,0,426.2,55.2Z" fill="#fff"/><path d="M453.13,49.51l-2.54,2.54v8.06h-7.06V22.61h7.06V43.38L452,41.63l6.76-7.94h8.47l-9.55,11L468,60.11h-8.11Z" fill="#fff"/><path d="M478.69,27.2v6.49h4.52v5.18h-4.52V52.05a3.16,3.16,0,0,0,.56,2.1,2.83,2.83,0,0,0,2.15.64,10.63,10.63,0,0,0,2.07-.18V60a14.58,14.58,0,0,1-4.27.64q-7.43,0-7.57-7.5V38.87h-3.85V33.69h3.85V27.2Z" fill="#fff"/><path d="M514.89,60.11a7.91,7.91,0,0,1-.7-2.37,8.56,8.56,0,0,1-6.67,2.86,9.36,9.36,0,0,1-6.43-2.25,7.22,7.22,0,0,1-2.55-5.66,7.46,7.46,0,0,1,3.11-6.45c2.07-1.5,5.07-2.25,9-2.27h3.24V42.46a4.33,4.33,0,0,0-.94-2.93,3.65,3.65,0,0,0-3-1.1,4.22,4.22,0,0,0-2.8.85,2.92,2.92,0,0,0-1,2.35h-7.06a7.05,7.05,0,0,1,1.42-4.25,9.46,9.46,0,0,1,4-3.07,14.64,14.64,0,0,1,5.81-1.11,11.54,11.54,0,0,1,7.76,2.46A8.57,8.57,0,0,1,521,42.55V54a12.71,12.71,0,0,0,1,5.69v.42Zm-5.83-4.91a6,6,0,0,0,2.88-.7,4.51,4.51,0,0,0,1.95-1.86V48.1h-2.63q-5.31,0-5.64,3.66l0,.41a2.84,2.84,0,0,0,.93,2.18A3.61,3.61,0,0,0,509.06,55.2Z" fill="#fff"/><path d="M542.21,57.42A8.83,8.83,0,0,1,535,60.6a8.33,8.33,0,0,1-6.48-2.45c-1.49-1.62-2.26-4-2.29-7.15V33.69h7.06V50.78q0,4.13,3.76,4.13,3.59,0,4.93-2.5V33.69h7.08V60.11h-6.64Z" fill="#fff"/><path d="M556.3,60.11V38.87h-3.93V33.69h3.93V31.45a9.11,9.11,0,0,1,2.55-6.9c1.7-1.64,4.08-2.45,7.14-2.45a16.7,16.7,0,0,1,3.59.48l-.07,5.47a9.36,9.36,0,0,0-2.15-.22q-4,0-4,3.74v2.12h5.25v5.18h-5.25V60.11Z" fill="#fff"/></g></g></svg>