<svg xmlns="http://www.w3.org/2000/svg" width="37.592" height="34.212" viewBox="0 0 37.592 34.212"><defs><style>.a{fill:#202020;}</style></defs><path class="a" d="M151.438,37.117a2.162,2.162,0,0,0,2.447-1.409l1.847-5.276a.534.534,0,0,0-.771-.639l-1.383.8-3.646-6.315a2.516,2.516,0,0,0-2.179-1.258h-5.611a2.516,2.516,0,0,0-2.179,1.258l-3.913,6.778a1.247,1.247,0,0,0,.457,1.7l4.23,2.442a1.247,1.247,0,0,0,1.7-.457l2.506-4.343,2.24,3.881-1.387.8a.534.534,0,0,0,.167.987Z" transform="translate(-125.906 -23.018)"/><path class="a" d="M288.374,250.648a2.516,2.516,0,0,0-.019-2.516l-3.963-6.744a1.247,1.247,0,0,0-1.707-.444l-4.212,2.473a1.247,1.247,0,0,0-.444,1.708l2.54,4.323-4.481.033-.012-1.6a.534.534,0,0,0-.941-.342l-3.612,4.242a2.162,2.162,0,0,0,.018,2.824l3.677,4.21a.534.534,0,0,0,.937-.355l-.012-1.6,7.291-.054a2.516,2.516,0,0,0,2.17-1.274Z" transform="translate(-251.109 -224.784)"/><path class="a" d="M13.147,227.878l-5.014-.02,2.257-3.871,1.384.807a.534.534,0,0,0,.775-.635l-1.806-5.27a2.162,2.162,0,0,0-2.438-1.425l-5.5,1.015a.534.534,0,0,0-.172.987l1.379.8-3.673,6.3a2.516,2.516,0,0,0-.011,2.516l2.787,4.874a2.516,2.516,0,0,0,2.174,1.267l7.822.032a1.247,1.247,0,0,0,1.253-1.242l.021-4.884A1.247,1.247,0,0,0,13.147,227.878Z" transform="translate(0 -203.153)"/></svg>