<svg xmlns="http://www.w3.org/2000/svg" width="31.189" height="31.189" viewBox="0 0 31.189 31.189"><defs><style>.a{fill:#fff;}</style></defs><g transform="translate(15.595 31.189) rotate(-135)"><g transform="translate(0 0)"><path class="a" d="M.784,16.944l4.873-4.873a4.287,4.287,0,0,1,1.671-1.116,1.384,1.384,0,0,0,.871-.873A4.4,4.4,0,0,1,9.332,8.395a1.119,1.119,0,0,1,1.548,0l.377.377,5.284-5.284v-.62A1.37,1.37,0,0,1,17.3,1.632L20.47.048A.461.461,0,0,1,21,.134l.919.919a.46.46,0,0,1,.086.53L20.422,4.75a1.368,1.368,0,0,1-1.232.763h-.62L13.286,10.8l.376.376a1.083,1.083,0,0,1,.321.773,1.1,1.1,0,0,1-.34.792,4.287,4.287,0,0,1-1.671,1.116,1.384,1.384,0,0,0-.871.873A4.3,4.3,0,0,1,9.983,16.4L5.11,21.27a2.7,2.7,0,0,1-1.891.784h0a2.693,2.693,0,0,1-1.891-.784l-.54-.54a2.677,2.677,0,0,1,0-3.785Z"/></g></g></svg>