<svg xmlns="http://www.w3.org/2000/svg" width="34.386" height="34.386" viewBox="0 0 34.386 34.386"><defs><style>.a{fill:#202020;}</style></defs><path class="a" d="M17.193,0A17.193,17.193,0,1,0,34.386,17.193,17.193,17.193,0,0,0,17.193,0Zm0,28.655A11.462,11.462,0,1,1,28.655,17.193,11.462,11.462,0,0,1,17.193,28.655Z"/><path class="a" d="M62.88,47.06,58.26,49.726A4.3,4.3,0,0,0,56.9,48.94V43.609H54.037V48.94a4.3,4.3,0,0,0-1.358.786L48.061,47.06l-1.433,2.481,4.617,2.666a4.253,4.253,0,0,0,0,1.57l-4.617,2.666,1.433,2.481,4.619-2.667a4.3,4.3,0,0,0,1.358.786v5.331H56.9V57.044a4.3,4.3,0,0,0,1.358-.786l4.619,2.667,1.433-2.481L59.7,53.777a4.253,4.253,0,0,0,0-1.57l4.617-2.666ZM55.47,54.425A1.433,1.433,0,1,1,56.9,52.992,1.433,1.433,0,0,1,55.47,54.425Z" transform="translate(-38.277 -35.799)"/></svg>