<svg xmlns="http://www.w3.org/2000/svg" width="47.323" height="34.417" viewBox="0 0 47.323 34.417"><defs><style>.a{fill:#202020;}</style></defs><g transform="translate(0 0)"><path class="a" d="M40.87,72.6H34.417V64H4.3A4.3,4.3,0,0,0,0,68.3V91.964H4.3a6.453,6.453,0,1,0,12.906,0H30.115a6.453,6.453,0,1,0,12.906,0h4.3V81.208ZM10.755,95.19a3.227,3.227,0,1,1,3.227-3.227A3.222,3.222,0,0,1,10.755,95.19Zm25.813,0a3.227,3.227,0,1,1,3.227-3.227A3.222,3.222,0,0,1,36.568,95.19ZM34.417,81.208V75.831h5.378l4.227,5.378Z" transform="translate(0 -64)"/></g></svg>