<svg xmlns="http://www.w3.org/2000/svg" width="396.6" height="83.991" viewBox="0 0 396.6 83.991"><defs><style>.a{isolation:isolate;}.b{fill:#202020;}</style></defs><g transform="translate(0 0.043)"><g class="a"><g class="a"><path class="b" d="M543.39,391.78l4.79-25.3h7.3L547.59,402h-7.37l-5.79-23.78L528.65,402h-7.38l-7.88-35.55h7.3l4.81,25.25,5.86-25.25h6.2Z" transform="translate(-485.22 -342.03)"/><path class="b" d="M573.47,402a8.1,8.1,0,0,1-.71-2.37,8.52,8.52,0,0,1-6.66,2.86,9.36,9.36,0,0,1-6.43-2.25,7.2,7.2,0,0,1-2.56-5.66,7.47,7.47,0,0,1,3.12-6.45q3.1-2.24,9-2.27h3.25v-1.51a4.33,4.33,0,0,0-.94-2.93,3.71,3.71,0,0,0-3-1.1,4.19,4.19,0,0,0-2.79.85,2.9,2.9,0,0,0-1,2.35H557.7a7.05,7.05,0,0,1,1.42-4.25,9.3,9.3,0,0,1,4-3.06,14.441,14.441,0,0,1,5.81-1.12,11.49,11.49,0,0,1,7.75,2.46,8.58,8.58,0,0,1,2.87,6.9V395.9a12.69,12.69,0,0,0,1.05,5.68V402Zm-5.83-4.91a6.12,6.12,0,0,0,2.88-.69,4.59,4.59,0,0,0,2-1.87V390h-2.64q-5.3,0-5.64,3.66v.41a2.84,2.84,0,0,0,.93,2.18,3.6,3.6,0,0,0,2.47.87Z" transform="translate(-485.22 -342.03)"/><path class="b" d="M599.28,394.73a2.29,2.29,0,0,0-1.28-2,14.523,14.523,0,0,0-4.12-1.33q-9.42-2-9.42-8a7.25,7.25,0,0,1,2.92-5.87,11.74,11.74,0,0,1,7.62-2.36,12.66,12.66,0,0,1,8,2.37,7.47,7.47,0,0,1,3,6.16h-7a3.44,3.44,0,0,0-1-2.51,4.13,4.13,0,0,0-3-1,4.21,4.21,0,0,0-2.76.81,2.54,2.54,0,0,0-1,2.05,2.17,2.17,0,0,0,1.11,1.89,11.42,11.42,0,0,0,3.74,1.25,30.811,30.811,0,0,1,4.45,1.18q5.58,2.06,5.59,7.11a6.89,6.89,0,0,1-3.1,5.84,13.39,13.39,0,0,1-8,2.24,14,14,0,0,1-5.9-1.19,10,10,0,0,1-4-3.24,7.6,7.6,0,0,1-1.46-4.46h6.69a3.68,3.68,0,0,0,1.389,2.88,5.5,5.5,0,0,0,3.471,1,5,5,0,0,0,3.06-.77,2.39,2.39,0,0,0,1-2.05Z" transform="translate(-485.22 -342.03)"/><path class="b" d="M646.1,392.43l3.47-16.82h6.81L649.64,402h-5.9l-5-16.63-5,16.63h-5.89l-6.74-26.42h6.82l3.44,16.8,4.83-16.8h5.1Z" transform="translate(-485.22 -342.03)"/><path class="b" d="M659.82,368.78a3.5,3.5,0,0,1,1.07-2.62,4.662,4.662,0,0,1,5.77,0,3.74,3.74,0,0,1,0,5.25,4.51,4.51,0,0,1-5.74,0,3.47,3.47,0,0,1-1.1-2.63Zm7.5,33.25h-7.08V375.61h7.08Z" transform="translate(-485.22 -342.03)"/><path class="b" d="M688,382.23a19.2,19.2,0,0,0-2.54-.2c-2.66,0-4.41.91-5.24,2.71V402h-7.06V375.61h6.66l.2,3.15a6.56,6.56,0,0,1,5.88-3.64,7.4,7.4,0,0,1,2.2.32Z" transform="translate(-485.22 -342.03)"/><path class="b" d="M727.62,389.07q0,6.35-2.71,9.89a9,9,0,0,1-7.57,3.56,8.25,8.25,0,0,1-6.86-3.3l-.31,2.81h-6.35v-37.5h7V378a8.06,8.06,0,0,1,6.42-2.86,9.07,9.07,0,0,1,7.59,3.56q2.745,3.54,2.74,10Zm-7-.52c0-2.67-.43-4.62-1.27-5.85a4.32,4.32,0,0,0-3.79-1.84,4.66,4.66,0,0,0-4.64,2.76v10.43a4.73,4.73,0,0,0,4.69,2.78,4.35,4.35,0,0,0,4.49-3.37,17,17,0,0,0,.47-4.91Z" transform="translate(-485.22 -342.03)"/><path class="b" d="M731.92,368.78a3.49,3.49,0,0,1,1.06-2.62,4.59,4.59,0,0,1,5.77,0,3.47,3.47,0,0,1,1.08,2.62,3.43,3.43,0,0,1-1.09,2.63,4.51,4.51,0,0,1-5.74,0,3.46,3.46,0,0,1-1.08-2.63ZM739.41,402h-7.08V375.61h7.08Z" transform="translate(-485.22 -342.03)"/><path class="b" d="M757.38,402.52a13,13,0,0,1-9.46-3.57,12.66,12.66,0,0,1-3.65-9.49v-.69a16,16,0,0,1,1.54-7.11,11.28,11.28,0,0,1,4.36-4.84,12.23,12.23,0,0,1,6.43-1.7,11,11,0,0,1,8.53,3.42q3.12,3.42,3.12,9.7v2.88H751.43a6.51,6.51,0,0,0,2.06,4.15,6.25,6.25,0,0,0,4.36,1.56,7.64,7.64,0,0,0,6.37-2.95l3.47,3.88a10.661,10.661,0,0,1-4.3,3.5,14.09,14.09,0,0,1-6.01,1.26Zm-.8-21.71a4.42,4.42,0,0,0-3.41,1.43,7.3,7.3,0,0,0-1.67,4.07h9.81v-.57A5.21,5.21,0,0,0,760,382.1a4.53,4.53,0,0,0-3.42-1.29Z" transform="translate(-485.22 -342.03)"/><path class="b" d="M780.7,369.12v6.49h4.51v5.18H780.7V394a3.11,3.11,0,0,0,.56,2.1,2.79,2.79,0,0,0,2.15.64,11.539,11.539,0,0,0,2.07-.17v5.34a14.25,14.25,0,0,1-4.27.64q-7.43,0-7.57-7.5V380.79h-3.85v-5.18h3.85v-6.49Z" transform="translate(-485.22 -342.03)"/><path class="b" d="M801.3,402.52a13,13,0,0,1-9.46-3.57,12.66,12.66,0,0,1-3.65-9.49v-.69a16,16,0,0,1,1.54-7.11,11.28,11.28,0,0,1,4.36-4.84,12.23,12.23,0,0,1,6.43-1.7,10.94,10.94,0,0,1,8.53,3.42q3.12,3.42,3.12,9.7v2.88H795.35a6.51,6.51,0,0,0,2.06,4.15,6.25,6.25,0,0,0,4.36,1.56,7.63,7.63,0,0,0,6.37-2.95l3.47,3.88a10.66,10.66,0,0,1-4.3,3.5,14.09,14.09,0,0,1-6.01,1.26Zm-.8-21.71a4.42,4.42,0,0,0-3.41,1.43,7.3,7.3,0,0,0-1.67,4.07h9.81v-.57A5.21,5.21,0,0,0,804,382.1,4.52,4.52,0,0,0,800.5,380.81Z" transform="translate(-485.22 -342.03)"/><path class="b" d="M822.67,375.61l.22,3.05a9.23,9.23,0,0,1,7.59-3.54c2.8,0,4.88.83,6.25,2.47s2.06,4.1,2.1,7.37V402h-7.06V385.1a4.6,4.6,0,0,0-1-3.26,4.42,4.42,0,0,0-3.25-1,4.86,4.86,0,0,0-4.47,2.54V402H816V375.61Z" transform="translate(-485.22 -342.03)"/></g></g><path class="b" d="M877.64,423.32c-30.26.55-61.51,1-93.15,1.38l-47.83.53-48.4.4c-32.45.18-65,.39-97.78.34s-65.5-.36-97.93-.8l-7.33-.1.3-2c1-6.46,1.92-12.92,2.62-19.38l.77-9.69.27-9.69c-.05-6.46-.21-12.92-.7-19.38l-2-19.38-.19-1.74,6.3-.07q48-.525,96.07-1l96.08-.49c32-.11,64-.29,96.08-.26s64.05.12,96.08.21h4.92C879.92,372,877.64,423.32,877.64,423.32Zm-1.57-.46c-.51-51-.29-49.59-1.85-76.37l5.1,1.57c-32,.09-66.52,1.09-98.54,1s-64-.15-96.08-.26l-96.08-.49q-48-.345-96.07-1l6.1-1.81-2,19.38c-.49,6.46-.65,12.92-.7,19.38l.27,9.7.77,9.68c.71,6.47,1.63,12.93,2.62,19.39l-7-2.08c31.61-.44,62.9-.74,94.21-.8s62.78.16,94.38.34l47.68.4,48.24.53c32.42.39,65.22.83,99,1.38Z" transform="translate(-485.22 -342.03)"/></g></svg>