<svg xmlns="http://www.w3.org/2000/svg" width="339.2" height="83.991" viewBox="0 0 339.2 83.991"><defs><style>.a{isolation:isolate;}.b{fill:#202020;}</style></defs><g transform="translate(0 0.043)"><g class="a"><g class="a"><path class="b" d="M577.74,393.78l4.78-25.3h7.3L581.93,404h-7.37l-5.78-23.78L563,404h-7.37l-7.89-35.55H555l4.81,25.25,5.86-25.25h6.2Z" transform="translate(-513.88 -342.03)"/><path class="b" d="M604.71,404.52a13,13,0,0,1-9.46-3.57,12.66,12.66,0,0,1-3.65-9.49v-.69a16,16,0,0,1,1.54-7.11,11.28,11.28,0,0,1,4.36-4.84,12.23,12.23,0,0,1,6.43-1.7,11,11,0,0,1,8.53,3.42q3.12,3.42,3.12,9.7v2.88H598.76a6.51,6.51,0,0,0,2.06,4.15,6.25,6.25,0,0,0,4.36,1.56,7.64,7.64,0,0,0,6.37-2.95l3.47,3.88a10.66,10.66,0,0,1-4.3,3.5,14.09,14.09,0,0,1-6.01,1.26Zm-.8-21.71a4.42,4.42,0,0,0-3.41,1.43,7.3,7.3,0,0,0-1.67,4.07h9.81v-.57a5.21,5.21,0,0,0-1.27-3.64,4.53,4.53,0,0,0-3.46-1.29Z" transform="translate(-513.88 -342.03)"/><path class="b" d="M634.42,384.23a19.194,19.194,0,0,0-2.53-.2c-2.67,0-4.42.91-5.25,2.71V404h-7.06V377.61h6.67l.19,3.15a6.56,6.56,0,0,1,5.89-3.64,7.379,7.379,0,0,1,2.19.32Z" transform="translate(-513.88 -342.03)"/><path class="b" d="M673.24,394.43l3.47-16.82h6.81L676.78,404h-5.9l-5-16.63-5,16.63H655l-6.74-26.42h6.81l3.45,16.8,4.83-16.8h5.1Z" transform="translate(-513.88 -342.03)"/><path class="b" d="M687,370.78a3.5,3.5,0,0,1,1.07-2.62,4.662,4.662,0,0,1,5.77,0,3.74,3.74,0,0,1,0,5.25,4.51,4.51,0,0,1-5.74,0A3.47,3.47,0,0,1,687,370.78Zm7.5,33.25h-7.08V377.61h7.08Z" transform="translate(-513.88 -342.03)"/><path class="b" d="M715.11,384.23a19.2,19.2,0,0,0-2.54-.2c-2.67,0-4.41.91-5.24,2.71V404h-7.06V377.61h6.66l.2,3.15a6.56,6.56,0,0,1,5.88-3.64,7.448,7.448,0,0,1,2.2.32Z" transform="translate(-513.88 -342.03)"/><path class="b" d="M745.26,396.73a2.27,2.27,0,0,0-1.28-2,14.319,14.319,0,0,0-4.11-1.33q-9.42-2-9.42-8a7.27,7.27,0,0,1,2.91-5.87,11.79,11.79,0,0,1,7.63-2.36,12.68,12.68,0,0,1,8,2.37,7.47,7.47,0,0,1,3,6.16h-7a3.44,3.44,0,0,0-1-2.51,4.13,4.13,0,0,0-3-1,4.21,4.21,0,0,0-2.76.81,2.55,2.55,0,0,0-1,2.05,2.17,2.17,0,0,0,1.11,1.89,11.412,11.412,0,0,0,3.75,1.25,30.306,30.306,0,0,1,4.44,1.18q5.6,2.06,5.59,7.11a6.87,6.87,0,0,1-3.1,5.84,13.33,13.33,0,0,1-8,2.24,14,14,0,0,1-5.9-1.19,9.93,9.93,0,0,1-4-3.24,7.53,7.53,0,0,1-1.46-4.46h6.68a3.69,3.69,0,0,0,1.4,2.88,5.47,5.47,0,0,0,3.46,1,5.08,5.08,0,0,0,3.07-.77A2.38,2.38,0,0,0,745.26,396.73Z" transform="translate(-513.88 -342.03)"/><path class="b" d="M756.62,370.78a3.49,3.49,0,0,1,1.06-2.62,4.59,4.59,0,0,1,5.77,0,3.47,3.47,0,0,1,1.08,2.62,3.43,3.43,0,0,1-1.09,2.63,4.51,4.51,0,0,1-5.74,0A3.46,3.46,0,0,1,756.62,370.78ZM764.11,404H757V377.61h7.08Z" transform="translate(-513.88 -342.03)"/><path class="b" d="M776.42,377.61l.22,3.05a9.24,9.24,0,0,1,7.59-3.54c2.8,0,4.88.83,6.25,2.47s2.07,4.1,2.1,7.37V404h-7.06V387.1a4.6,4.6,0,0,0-1-3.26,4.41,4.41,0,0,0-3.25-1,4.86,4.86,0,0,0-4.47,2.54V404h-7.05V377.61Z" transform="translate(-513.88 -342.03)"/><path class="b" d="M796.83,390.63q0-6.18,2.77-9.84a9,9,0,0,1,7.58-3.67,8.1,8.1,0,0,1,6.37,2.89V366.53h7.08V404h-6.37l-.34-2.81a8.3,8.3,0,0,1-6.79,3.3,9,9,0,0,1-7.48-3.68Q796.83,397.17,796.83,390.63Zm7,.52a10.36,10.36,0,0,0,1.3,5.7,4.21,4.21,0,0,0,3.76,2,4.71,4.71,0,0,0,4.61-2.76V385.62a4.65,4.65,0,0,0-4.56-2.76q-5.06,0-5.06,8.29Z" transform="translate(-513.88 -342.03)"/></g></g><path class="b" d="M849.57,423.32c-25.88.55-52.61,1-79.69,1.38l-40.91.53-41.4.4c-27.76.18-55.64.39-83.65.34s-56-.36-83.77-.8l-6.27-.1.26-2c.84-6.46,1.63-12.92,2.23-19.38L517,394l.23-9.69q0-9.69-.6-19.38l-1.75-19.38-.15-1.74,5.38-.07c27.4-.35,54.79-.73,82.19-1l82.19-.49c27.4-.11,54.79-.29,82.19-.26s54.79.12,82.19.21h4.21C851.52,372,849.57,423.32,849.57,423.32Zm-1.35-.46c-.43-51-.24-49.59-1.58-76.37l4.37,1.57c-27.4.09-56.9,1.09-84.3,1s-54.8-.15-82.19-.26l-82.19-.49c-27.4-.23-54.8-.61-82.19-1l5.22-1.81-1.75,19.38c-.42,6.46-.55,12.92-.6,19.38l.24,9.7.66,9.68c.6,6.47,1.39,12.93,2.23,19.39l-6-2.08c27-.44,53.82-.74,80.6-.8s53.7.16,80.73.34l40.79.4,41.27.53c27.73.39,55.79.83,84.7,1.38Z" transform="translate(-513.88 -342.03)"/></g></svg>