<svg xmlns="http://www.w3.org/2000/svg" width="33.43" height="33.43" viewBox="0 0 33.43 33.43"><defs><style>.a{fill:#fff;}</style></defs><g transform="translate(16.681) rotate(45)"><g transform="translate(0 0)"><path class="a" d="M23.56,3.093a.125.125,0,0,0-.084-.112.212.212,0,0,0-.141.028L20.8,5.463,18.19,2.87,20.72.36a.134.134,0,0,0,0-.2c-.028-.028-.028-.028-.056-.028a5.975,5.975,0,0,0-5.314,1.45,3.851,3.851,0,0,0-.787,3.932c.028.139.056.307.084.418-.9.948-7.7,7.725-8.717,8.673-.112-.028-.225-.056-.366-.084A3.809,3.809,0,0,0,1.6,15.28,5.751,5.751,0,0,0,.138,20.5a.154.154,0,0,0,.169.112.1.1,0,0,0,.056-.028l2.531-2.454,2.615,2.594-2.531,2.51a.134.134,0,0,0,0,.2c.028.028.028.028.056.028a6,6,0,0,0,1.237.139,5.836,5.836,0,0,0,4.077-1.618,3.851,3.851,0,0,0,.787-3.932c-.028-.139-.056-.307-.084-.418.9-.948,7.7-7.725,8.717-8.673l.366.084A3.792,3.792,0,0,0,22.1,8.308,5.829,5.829,0,0,0,23.56,3.093Z"/></g></g></svg>